PathFileType	4	(X/Y/Z)	c:\Git\powerlifing_model_clean\simulations\HC835B\Session1\HC835B_OGR_0007\marker_experimental.trc
DataRate	CameraRate	NumFrames	NumMarkers	Units	OrigDataRate	OrigDataStartFrame	OrigNumFrames
240.000000	240.000000	5	38	mm	240.000000	139	223
Frame#	Time	RPSI			LPSI			RASI			LASI			RTH1			RTH2			RTH3			RTH4			RSK1			RSK2			RSK3			RSK4			RCAL1			RCAL2			RCAL3			RST			RPT			RTN			RFMB			RSMB			RVMB			RFMH			RSMH			RVMH			RPM			LTH1			LTH2			LTH3			LTH4			LSK1			LSK2			LSK3			LSK4			LCAL1			LCAL2			LCAL3			LFMH			LVMH			
		X1	Y1	Z1	X2	Y2	Z2	X3	Y3	Z3	X4	Y4	Z4	X5	Y5	Z5	X6	Y6	Z6	X7	Y7	Z7	X8	Y8	Z8	X9	Y9	Z9	X10	Y10	Z10	X11	Y11	Z11	X12	Y12	Z12	X13	Y13	Z13	X14	Y14	Z14	X15	Y15	Z15	X16	Y16	Z16	X17	Y17	Z17	X18	Y18	Z18	X19	Y19	Z19	X20	Y20	Z20	X21	Y21	Z21	X22	Y22	Z22	X23	Y23	Z23	X24	Y24	Z24	X25	Y25	Z25	X26	Y26	Z26	X27	Y27	Z27	X28	Y28	Z28	X29	Y29	Z29	X30	Y30	Z30	X31	Y31	Z31	X32	Y32	Z32	X33	Y33	Z33	X34	Y34	Z34	X35	Y35	Z35	X36	Y36	Z36	X37	Y37	Z37	X38	Y38	Z38	

140	0.5791666666666666	521.1109008789064	1085.524658203125	-1734.204223632813	416.2316284179689	1094.643188476563	-1734.697387695313	584.8837280273439	1007.697448730469	-1934.16552734375	329.1936340332032	1008.210266113281	-1924.878540039063	654.4326171875001	748.9664916992189	-1926.264404296875	639.8703002929689	750.1735229492189	-1985.316528320313	645.1070556640626	674.4450683593751	-1965.52099609375	620.4908447265626	674.2402343750001	-2018.86083984375	620.4266357421876	531.2492065429689	-1714.849487304688	622.0549316406251	469.8283081054689	-1709.58642578125	618.9168090820314	507.2782592773439	-1661.466064453125	607.7108764648439	448.4418029785157	-1656.654174804688	564.8447875976564	546.6409912109376	-1519.548095703125	527.8209228515626	541.1863403320314	-1487.269165039063	591.6230468750001	546.2319946289064	-1478.589111328125	520.3173217773439	470.5493164062501	-1499.275390625	618.2417602539064	487.0963134765626	-1482.551635742188	537.9940795898439	414.890106201172	-1513.253784179688	538.3912963867189	385.3060607910157	-1492.046752929688	590.7547607421876	375.4559631347657	-1509.997436523438	626.3820800781251	445.1707763671876	-1452.484008789063	531.5554199218751	333.6830444335938	-1456.620361328125	588.0255737304689	320.7778930664063	-1465.710693359375	641.9017333984376	368.2231140136719	-1435.305053710938	579.7939453125001	265.5045166015626	-1457.450317382813	269.0451049804688	748.0584716796876	-1868.023193359375	263.8080749511719	744.2494506835939	-1928.508178710938	275.2208862304688	668.7958984375001	-1900.991943359375	285.6953125000001	668.0476074218751	-1962.06298828125	345.9378662109376	271.6484069824219	-1762.703247070313	346.8529968261719	234.4252929687501	-1800.55712890625	355.7757263183594	216.3292388916016	-1755.512084960938	373.0227966308594	181.725570678711	-1797.800170898438	428.5352172851564	95.18444824218751	-1635.65087890625	397.2847595214845	58.5593605041504	-1632.4443359375	455.6423950195314	56.06581878662111	-1635.497924804688	464.0194396972657	50.41748046875001	-1862.161499023438	356.9725036621094	28.45152854919434	-1819.786376953125	
141	0.5833333333333334	521.0636596679689	1087.462646484375	-1747.455322265625	415.833709716797	1096.441528320313	-1748.08349609375	585.2018432617189	1010.427978515625	-1947.108520507813	329.3813171386719	1009.699768066406	-1938.780517578125	654.1558837890626	752.6109619140626	-1942.552124023438	640.2834472656251	755.0314331054689	-2001.75390625	645.5619506835939	678.8660278320314	-1983.317993164063	621.0742797851564	679.6549072265626	-2036.67041015625	620.4838256835939	530.0076293945314	-1735.462158203125	621.6875000000001	468.4385986328126	-1731.475463867188	618.5668945312501	504.8768920898439	-1682.62060546875	607.1115722656251	446.012908935547	-1679.093994140625	564.3348388671876	541.5206909179689	-1539.435180664063	527.2344360351564	535.2019042968751	-1507.359985351563	591.0314941406251	539.8416137695314	-1498.552490234375	519.5122070312501	464.9862365722657	-1521.215087890625	617.6289672851564	480.9239196777345	-1504.228759765625	537.1951904296876	409.7178649902345	-1536.758544921875	537.4601440429689	379.4656066894532	-1516.496826171875	589.8760986328126	370.0703125000001	-1534.6904296875	625.5670166015626	438.0729370117189	-1475.170776367188	530.5338745117189	326.9783935546876	-1482.485961914063	587.0142211914064	314.1879577636719	-1491.86767578125	640.9101562500001	360.7071838378907	-1460.1328125	578.5519409179689	258.6442565917969	-1485.186889648438	269.4995422363282	748.7309570312501	-1876.765747070313	264.5055541992188	743.9955444335939	-1937.22998046875	275.7673339843751	669.0640258789064	-1908.400024414063	286.5371093750001	667.2288818359376	-1969.40673828125	346.0536804199219	272.5517272949219	-1764.506713867188	346.9424133300782	234.4997711181641	-1802.606567382813	356.0995788574219	217.8433837890626	-1756.58837890625	373.1335754394532	182.4053497314453	-1798.942993164063	427.9517517089845	96.45437622070315	-1636.191162109375	396.9745178222657	59.62721252441408	-1632.771484375	455.3770446777345	57.53757095336915	-1635.801391601563	463.983856201172	50.44345474243165	-1862.260620117188	356.9857177734376	28.45365905761719	-1819.831787109375	
142	0.5875	521.1839599609376	1089.6103515625	-1760.675659179688	415.5604553222657	1098.491577148438	-1761.553833007813	585.2611083984376	1013.405151367188	-1960.3359375	329.5912780761719	1011.469665527344	-1952.931030273438	654.3126220703126	756.4307250976564	-1958.614135742188	640.8292846679689	759.9833984375001	-2017.835693359375	645.9434204101564	683.4923706054689	-2000.866577148438	621.8001708984376	685.3289184570314	-2054.431396484375	620.3705444335939	528.6589965820314	-1755.902465820313	621.2755126953126	466.9966735839845	-1753.30029296875	618.1507568359376	502.3604736328126	-1703.677612304688	606.4564208984376	443.4975891113282	-1701.44140625	563.7062377929689	535.9636840820314	-1559.288452148438	526.5498657226564	528.8051147460939	-1527.304565429688	590.3275146484376	533.0855712890626	-1518.405517578125	518.8071289062501	459.0438537597657	-1543.382934570313	616.8556518554689	474.2638549804689	-1525.853759765625	536.2586059570314	404.2661743164064	-1560.37255859375	536.4537963867189	373.3918762207032	-1541.0146484375	588.9656372070314	364.4530639648438	-1559.530639648438	624.9660034179689	430.6518554687501	-1498.24462890625	530.9749145507814	320.1614379882813	-1510.015869140625	585.9826660156251	307.3197631835938	-1518.364501953125	639.9436035156251	352.7515869140626	-1485.224731445313	577.3829956054689	251.6569213867188	-1513.340087890625	270.0300598144532	749.5480346679689	-1885.478393554688	265.3011169433594	743.7821044921876	-1945.78662109375	276.4193115234376	669.4533081054689	-1915.660278320313	287.8846130371094	666.3877563476564	-1977.200561523438	346.2418823242188	273.6137695312501	-1766.263549804688	347.0663757324219	236.0014953613282	-1803.564819335938	355.6590881347657	219.1700897216797	-1757.941040039063	372.8129272460938	183.2953338623047	-1799.87744140625	427.3979492187501	97.9204025268555	-1636.752075195313	396.7072143554689	60.98190307617189	-1633.120361328125	455.110321044922	59.21797943115236	-1636.112915039063	464.0028076171876	50.4005699157715	-1862.357299804688	357.0625915527344	28.46784973144532	-1819.85693359375	
143	0.5916666666666667	521.3491821289064	1091.742553710938	-1774.140380859375	415.1970825195314	1100.645751953125	-1775.132202148438	585.1842041015626	1016.332702636719	-1973.794921875	329.8997497558594	1013.907104492188	-1966.923950195313	654.4542846679689	760.4490966796876	-1974.46533203125	641.3832397460939	765.2019653320314	-2033.721923828125	646.3734130859376	688.4065551757814	-2018.236572265625	622.3780517578126	691.2009887695314	-2071.743896484375	620.0722656250001	527.2861328125001	-1776.199829101563	620.8051757812501	465.531707763672	-1775.037719726563	617.6373291015626	499.7408142089845	-1724.636596679688	605.6591186523439	440.846160888672	-1723.746337890625	563.0208129882814	530.0504150390626	-1579.077880859375	525.9529418945314	521.8839111328126	-1547.3134765625	589.6093139648439	525.8449096679689	-1538.283935546875	518.1324462890626	452.4737243652345	-1565.684326171875	616.1008300781251	467.3284606933595	-1547.577758789063	535.1899414062501	398.2120971679689	-1584.038696289063	535.6237182617189	366.8185119628907	-1566.19921875	587.9392700195314	358.5911254882813	-1584.5869140625	624.0601806640626	422.741424560547	-1521.30419921875	530.0278320312501	313.0412902832032	-1536.583251953125	585.5714721679689	300.3733825683594	-1545.502075195313	638.9375610351564	344.4920654296876	-1510.701171875	576.1900634765626	244.453353881836	-1541.890747070313	270.6977539062501	750.6628417968751	-1894.072143554688	266.2097473144532	743.7014160156251	-1954.242553710938	277.2430725097657	670.0289306640626	-1922.700073242188	289.0538024902344	665.9110717773439	-1984.348510742188	346.5131225585938	274.9893493652344	-1768.045043945313	347.1921081542969	237.2742767333985	-1805.102661132813	356.0307922363282	220.1018981933594	-1759.574340820313	372.9388427734376	184.3594665527344	-1800.746459960938	426.821746826172	99.61301422119143	-1637.292358398438	396.476287841797	62.42283630371095	-1633.502685546875	454.823699951172	61.1605911254883	-1636.518432617188	464.048065185547	50.36450576782228	-1862.5087890625	357.1156616210938	28.50510025024415	-1819.912719726563	
144	0.5958333333333333	521.6383666992189	1094.19921875	-1787.61279296875	414.7784423828126	1102.850708007813	-1788.85595703125	584.6844482421876	1019.541320800781	-1988.009521484375	329.4520568847657	1016.723876953125	-1980.200561523438	654.6290283203126	764.4819335937501	-1990.056884765625	641.9124145507814	770.2900390625002	-2049.258056640625	646.6939086914064	693.3604125976564	-2035.292602539063	622.8957519531251	697.1864013671876	-2088.853515625	619.6802978515626	525.7608032226564	-1796.333862304688	619.9573364257814	463.9435119628907	-1796.779907226563	616.9628906250001	496.9682617187501	-1745.481567382813	604.9372558593751	437.9862670898439	-1745.916748046875	562.2478637695314	523.7213134765626	-1598.8310546875	525.2720336914064	514.6259765625001	-1567.269165039063	589.0820922851564	518.4141845703126	-1558.2666015625	517.5142822265626	445.4840393066407	-1588.120361328125	615.2673339843751	459.9298095703126	-1569.39599609375	534.2228393554689	392.218719482422	-1607.959838867188	534.5359497070314	360.5833435058594	-1590.936645507813	586.9168090820314	352.5778198242188	-1609.909301757813	623.0681762695314	414.5538024902345	-1544.594116210938	528.9159545898439	305.3869018554688	-1563.347045898438	584.4000854492189	293.0643310546876	-1572.698486328125	637.9187622070314	335.9721984863282	-1536.527954101563	575.0338134765626	237.1341857910157	-1570.941162109375	271.4465942382813	751.9618530273439	-1902.653076171875	267.2535095214844	743.7662353515626	-1962.673095703125	278.2233581542969	670.6630249023439	-1929.660766601563	290.0881042480469	665.2943115234376	-1991.064331054688	346.7046813964844	276.4605102539063	-1769.9833984375	347.4390258789063	238.3708801269532	-1806.938842773438	356.1314086914063	221.8487396240235	-1761.042114257813	372.9241027832032	185.5847930908203	-1802.213134765625	426.0883789062501	101.560791015625	-1638.078002929688	395.9590454101564	64.15121459960939	-1634.019653320313	454.4222717285157	63.3096389770508	-1637.020385742188	464.0908813476564	50.40943527221681	-1862.688842773438	357.1931457519532	28.52871322631837	-1820.01171875	
